<mxfile host="app.diagrams.net" modified="2024-06-22T19:01:16.232Z" agent="Mozilla/5.0 (Windows NT 10.0; Win64; x64) AppleWebKit/537.36 (KHTML, like Gecko) Chrome/126.0.0.0 Safari/537.36" version="24.6.2" etag="Hm1Eip1jy-Hl-XNcx2w3" type="github">
  <diagram name="PÃ¡gina-1" id="JWqpj-Ds34XRC8R46FUR">
    <mxGraphModel>
      <root>
        <mxCell id="0" />
        <mxCell id="1" parent="0" />
      </root>
    </mxGraphModel>
  </diagram>
</mxfile>
